# This file uses centimeters as units for non-parametric coordinates.

mtllib wheel_segment_1.mtl
g default
v 1.811738 0.000000 -5.889527
v 0.913686 0.000000 -6.068161
v 0.000003 0.000000 -6.128045
v -0.913682 0.000000 -6.068162
v -1.811734 0.000000 -5.889529
v 0.225680 0.000000 0.029710
v 0.113813 0.000000 0.007458
v -0.000000 0.000000 0.000000
v -0.113814 0.000000 0.007460
v -0.225680 0.000000 0.029710
vt 0.500000 1.000000
vt 0.520395 0.998663
vt 0.540440 0.994676
vt 0.559794 0.988106
vt 0.578125 0.979066
vt 0.500000 0.921875
vt 0.510197 0.921207
vt 0.520220 0.919213
vt 0.529897 0.915928
vt 0.539063 0.911408
vn 0.000000 1.000000 0.000000
vn 0.000000 1.000000 0.000000
vn 0.000000 1.000000 0.000000
vn 0.000000 1.000000 0.000000
vn 0.000000 1.000000 0.000000
vn 0.000000 1.000000 0.000000
vn -0.000000 1.000000 -0.000000
vn -0.000000 1.000000 -0.000000
vn 0.000000 1.000000 0.000000
vn 0.000000 1.000000 0.000000
s 1
g pCylinder1
usemtl initialShadingGroup
f 1/5/1 2/4/2 7/9/3 6/10/4
f 2/4/2 3/3/5 8/8/6 7/9/3
f 3/3/5 4/2/7 9/7/8 8/8/6
f 4/2/7 5/1/9 10/6/10 9/7/8
